G04*
G04 #@! TF.GenerationSoftware,Altium Limited,Altium Designer,22.5.1 (42)*
G04*
G04 Layer_Color=32896*
%FSLAX44Y44*%
%MOMM*%
G71*
G04*
G04 #@! TF.SameCoordinates,9DAFF6D1-3FFA-4798-8E4B-9BBE38542115*
G04*
G04*
G04 #@! TF.FilePolarity,Positive*
G04*
G01*
G75*
%ADD15C,0.1530*%
D15*
X789025Y362374D02*
Y372531D01*
X785639Y369146D01*
X782254Y372531D01*
Y362374D01*
X777175D02*
X773790D01*
X772097Y364067D01*
Y367453D01*
X773790Y369146D01*
X777175D01*
X778868Y367453D01*
Y364067D01*
X777175Y362374D01*
X768711Y372531D02*
Y362374D01*
Y367453D01*
X767019Y369146D01*
X763633D01*
X761940Y367453D01*
Y362374D01*
X756862Y369146D02*
X753476D01*
X751784Y367453D01*
Y362374D01*
X756862D01*
X758555Y364067D01*
X756862Y365760D01*
X751784D01*
X748398Y362374D02*
Y369146D01*
X746705D01*
X745012Y367453D01*
Y362374D01*
Y367453D01*
X743319Y369146D01*
X741627Y367453D01*
Y362374D01*
X733163D02*
X736548D01*
X738241Y364067D01*
Y367453D01*
X736548Y369146D01*
X733163D01*
X731470Y367453D01*
Y365760D01*
X738241D01*
X721313Y372531D02*
Y362374D01*
X726392D01*
X728084Y364067D01*
Y367453D01*
X726392Y369146D01*
X721313D01*
X707771Y362374D02*
Y369146D01*
X704385Y372531D01*
X701000Y369146D01*
Y362374D01*
Y367453D01*
X707771D01*
X697614Y369146D02*
X690843D01*
X697614Y362374D01*
X690843D01*
X687458D02*
X684072D01*
X685765D01*
Y369146D01*
X687458D01*
X678994D02*
X672223D01*
X678994Y362374D01*
X672223D01*
X658680Y372531D02*
Y362374D01*
X651909D01*
X646831Y369146D02*
X643445D01*
X641752Y367453D01*
Y362374D01*
X646831D01*
X648523Y364067D01*
X646831Y365760D01*
X641752D01*
X638367Y362374D02*
X633288D01*
X631596Y364067D01*
X633288Y365760D01*
X636674D01*
X638367Y367453D01*
X636674Y369146D01*
X631596D01*
X628210Y362374D02*
X623132D01*
X621439Y364067D01*
X623132Y365760D01*
X626517D01*
X628210Y367453D01*
X626517Y369146D01*
X621439D01*
X616361Y362374D02*
X612975D01*
X611282Y364067D01*
Y367453D01*
X612975Y369146D01*
X616361D01*
X618053Y367453D01*
Y364067D01*
X616361Y362374D01*
X607896Y369146D02*
Y364067D01*
X606204Y362374D01*
X601125D01*
Y369146D01*
X592662Y362374D02*
X596047D01*
X597740Y364067D01*
Y367453D01*
X596047Y369146D01*
X592662D01*
X590969Y367453D01*
Y365760D01*
X597740D01*
X580812Y372531D02*
Y362374D01*
X585890D01*
X587583Y364067D01*
Y367453D01*
X585890Y369146D01*
X580812D01*
X560499Y362374D02*
X562191Y364067D01*
X563884Y362374D01*
X565577D01*
X567270Y364067D01*
Y365760D01*
X565577Y367453D01*
X567270Y369146D01*
Y370838D01*
X565577Y372531D01*
X563884D01*
X562191Y370838D01*
Y369146D01*
X563884Y367453D01*
X562191Y365760D01*
Y364067D01*
X560499Y367453D02*
X562191Y365760D01*
X565577Y367453D02*
X563884D01*
X546956Y362374D02*
Y369146D01*
X543571Y372531D01*
X540185Y369146D01*
Y362374D01*
Y367453D01*
X546956D01*
X536800Y372531D02*
Y362374D01*
X531721D01*
X530028Y364067D01*
Y365760D01*
Y367453D01*
X531721Y369146D01*
X536800D01*
X519872Y372531D02*
Y362374D01*
X524950D01*
X526643Y364067D01*
Y367453D01*
X524950Y369146D01*
X519872D01*
X511408Y362374D02*
X514793D01*
X516486Y364067D01*
Y367453D01*
X514793Y369146D01*
X511408D01*
X509715Y367453D01*
Y365760D01*
X516486D01*
X506329Y362374D02*
X502944D01*
X504636D01*
Y372531D01*
X506329D01*
X494480Y358989D02*
X492787D01*
X491094Y360682D01*
Y369146D01*
X496173D01*
X497865Y367453D01*
Y364067D01*
X496173Y362374D01*
X491094D01*
X487709Y372531D02*
Y362374D01*
Y367453D01*
X486016Y369146D01*
X482630D01*
X480938Y367453D01*
Y362374D01*
X475859Y369146D02*
X472474D01*
X470781Y367453D01*
Y362374D01*
X475859D01*
X477552Y364067D01*
X475859Y365760D01*
X470781D01*
X465702Y362374D02*
Y370838D01*
Y367453D01*
X467395D01*
X464010D01*
X465702D01*
Y370838D01*
X464010Y372531D01*
X457239Y362374D02*
X453853D01*
X452160Y364067D01*
Y367453D01*
X453853Y369146D01*
X457239D01*
X458931Y367453D01*
Y364067D01*
X457239Y362374D01*
X448774Y369146D02*
Y364067D01*
X447082Y362374D01*
X442003D01*
Y369146D01*
X438618D02*
Y362374D01*
Y365760D01*
X436925Y367453D01*
X435232Y369146D01*
X433540D01*
X418304Y362374D02*
Y369146D01*
X414919Y372531D01*
X411533Y369146D01*
Y362374D01*
Y367453D01*
X418304D01*
X408148Y369146D02*
Y364067D01*
X406455Y362374D01*
X401376D01*
Y360682D01*
X403069Y358989D01*
X404762D01*
X401376Y362374D02*
Y369146D01*
X396298D02*
X392913D01*
X391220Y367453D01*
Y362374D01*
X396298D01*
X397991Y364067D01*
X396298Y365760D01*
X391220D01*
X381063Y369146D02*
X386141D01*
X387834Y367453D01*
Y364067D01*
X386141Y362374D01*
X381063D01*
X377677Y372531D02*
Y362374D01*
Y367453D01*
X375985Y369146D01*
X372599D01*
X370906Y367453D01*
Y362374D01*
X367521D02*
X364135D01*
X365828D01*
Y369146D01*
X367521D01*
X632014Y393702D02*
Y403858D01*
X626936D01*
X625243Y402166D01*
Y398780D01*
X626936Y397087D01*
X632014D01*
X621857Y403858D02*
Y393702D01*
X615086D01*
X606623Y403858D02*
X610008D01*
X611701Y402166D01*
Y395394D01*
X610008Y393702D01*
X606623D01*
X604930Y395394D01*
Y402166D01*
X606623Y403858D01*
X601544D02*
Y402166D01*
X598158Y398780D01*
X594773Y402166D01*
Y403858D01*
X598158Y398780D02*
Y393702D01*
X584616Y402166D02*
X586309Y403858D01*
X589695D01*
X591387Y402166D01*
Y395394D01*
X589695Y393702D01*
X586309D01*
X584616Y395394D01*
X581231Y403858D02*
Y393702D01*
Y398780D01*
X574459D01*
Y403858D01*
Y393702D01*
X571074D02*
Y400473D01*
X567688Y403858D01*
X564303Y400473D01*
Y393702D01*
Y398780D01*
X571074D01*
X554146Y403858D02*
X560917D01*
Y393702D01*
X554146D01*
X560917Y398780D02*
X557532D01*
X550760Y403858D02*
X543989D01*
X547375D01*
Y393702D01*
X540604D02*
Y400473D01*
X537218Y403858D01*
X533833Y400473D01*
Y393702D01*
Y398780D01*
X540604D01*
X520290Y393702D02*
Y403858D01*
X515212D01*
X513519Y402166D01*
Y398780D01*
X515212Y397087D01*
X520290D01*
X503362Y402166D02*
X505055Y403858D01*
X508441D01*
X510134Y402166D01*
Y395394D01*
X508441Y393702D01*
X505055D01*
X503362Y395394D01*
X499977Y403858D02*
Y393702D01*
X494898D01*
X493206Y395394D01*
Y397087D01*
X494898Y398780D01*
X499977D01*
X494898D01*
X493206Y400473D01*
Y402166D01*
X494898Y403858D01*
X499977D01*
X670527Y424182D02*
X673913Y427567D01*
Y430953D01*
X670527Y434338D01*
X658678Y432646D02*
X660370Y434338D01*
X663756D01*
X665449Y432646D01*
Y425874D01*
X663756Y424182D01*
X660370D01*
X658678Y425874D01*
X655292Y424182D02*
X651907Y427567D01*
Y430953D01*
X655292Y434338D01*
X629900Y424182D02*
X636671D01*
X629900Y430953D01*
Y432646D01*
X631593Y434338D01*
X634979D01*
X636671Y432646D01*
X626515D02*
X624822Y434338D01*
X621436D01*
X619744Y432646D01*
Y425874D01*
X621436Y424182D01*
X624822D01*
X626515Y425874D01*
Y432646D01*
X609587Y424182D02*
X616358D01*
X609587Y430953D01*
Y432646D01*
X611280Y434338D01*
X614665D01*
X616358Y432646D01*
X599430Y434338D02*
X606201D01*
Y429260D01*
X602816Y430953D01*
X601123D01*
X599430Y429260D01*
Y425874D01*
X601123Y424182D01*
X604509D01*
X606201Y425874D01*
X585888Y434338D02*
X579117D01*
X582502D01*
Y424182D01*
X575731Y430953D02*
Y425874D01*
X574038Y424182D01*
X568960D01*
Y430953D01*
X565574Y424182D02*
Y430953D01*
X560496D01*
X558803Y429260D01*
Y424182D01*
X555418D02*
X552032D01*
X553725D01*
Y430953D01*
X555418D01*
X546954Y424182D02*
X541875D01*
X540183Y425874D01*
X541875Y427567D01*
X545261D01*
X546954Y429260D01*
X545261Y430953D01*
X540183D01*
X536797Y424182D02*
X533411D01*
X535104D01*
Y430953D01*
X536797D01*
X526640D02*
X523255D01*
X521562Y429260D01*
Y424182D01*
X526640D01*
X528333Y425874D01*
X526640Y427567D01*
X521562D01*
X508020Y434338D02*
Y424182D01*
X502941D01*
X501249Y425874D01*
Y427567D01*
X502941Y429260D01*
X508020D01*
X502941D01*
X501249Y430953D01*
Y432646D01*
X502941Y434338D01*
X508020D01*
X496170Y430953D02*
X492785D01*
X491092Y429260D01*
Y424182D01*
X496170D01*
X497863Y425874D01*
X496170Y427567D01*
X491092D01*
X487706Y424182D02*
X484321D01*
X486013D01*
Y430953D01*
X487706D01*
X477550Y432646D02*
Y430953D01*
X479242D01*
X475857D01*
X477550D01*
Y425874D01*
X475857Y424182D01*
X470778D02*
X465700D01*
X464007Y425874D01*
X465700Y427567D01*
X469086D01*
X470778Y429260D01*
X469086Y430953D01*
X464007D01*
M02*
