G04*
G04 #@! TF.GenerationSoftware,Altium Limited,Altium Designer,22.5.1 (42)*
G04*
G04 Layer_Physical_Order=1*
G04 Layer_Color=255*
%FSLAX44Y44*%
%MOMM*%
G71*
G04*
G04 #@! TF.SameCoordinates,9DAFF6D1-3FFA-4798-8E4B-9BBE38542115*
G04*
G04*
G04 #@! TF.FilePolarity,Positive*
G04*
G01*
G75*
%ADD16R,1.0000X1.1000*%
%ADD17R,2.0000X0.9000*%
%ADD18R,0.9000X2.0000*%
%ADD19R,1.3300X1.3300*%
%ADD20R,1.7500X2.2000*%
%ADD21R,1.0200X1.0400*%
%ADD22R,3.7900X0.9900*%
%ADD23R,2.8956X5.4102*%
%ADD24R,4.0000X2.0000*%
%ADD25R,0.9500X0.8500*%
%ADD26R,0.7300X0.9400*%
%ADD27R,1.5500X1.3500*%
%ADD28R,1.1700X1.8000*%
%ADD29R,1.9000X1.3500*%
%ADD30R,1.2000X1.0000*%
%ADD31R,0.8500X1.1000*%
%ADD32R,0.7500X1.1000*%
%ADD33R,1.0400X1.0200*%
%ADD34R,1.0500X1.9500*%
%ADD35R,0.9400X0.7300*%
%ADD36R,0.6000X0.3500*%
G04:AMPARAMS|DCode=37|XSize=0.9mm|YSize=1.75mm|CornerRadius=0.0495mm|HoleSize=0mm|Usage=FLASHONLY|Rotation=270.000|XOffset=0mm|YOffset=0mm|HoleType=Round|Shape=RoundedRectangle|*
%AMROUNDEDRECTD37*
21,1,0.9000,1.6510,0,0,270.0*
21,1,0.8010,1.7500,0,0,270.0*
1,1,0.0990,-0.8255,-0.4005*
1,1,0.0990,-0.8255,0.4005*
1,1,0.0990,0.8255,0.4005*
1,1,0.0990,0.8255,-0.4005*
%
%ADD37ROUNDEDRECTD37*%
G04:AMPARAMS|DCode=38|XSize=3.2mm|YSize=1.75mm|CornerRadius=0.0525mm|HoleSize=0mm|Usage=FLASHONLY|Rotation=270.000|XOffset=0mm|YOffset=0mm|HoleType=Round|Shape=RoundedRectangle|*
%AMROUNDEDRECTD38*
21,1,3.2000,1.6450,0,0,270.0*
21,1,3.0950,1.7500,0,0,270.0*
1,1,0.1050,-0.8225,-1.5475*
1,1,0.1050,-0.8225,1.5475*
1,1,0.1050,0.8225,1.5475*
1,1,0.1050,0.8225,-1.5475*
%
%ADD38ROUNDEDRECTD38*%
%ADD73R,7.8800X10.8400*%
%ADD74C,0.3810*%
%ADD75C,0.1520*%
%ADD76C,0.5080*%
%ADD77C,0.2540*%
%ADD78O,3.8000X1.9000*%
%ADD79O,1.9000X3.8000*%
%ADD80C,1.5500*%
%ADD81C,1.5000*%
%ADD82C,1.5240*%
%ADD83C,1.5300*%
%ADD84R,1.5300X1.5300*%
%ADD85R,1.5300X1.5300*%
%ADD86C,2.5500*%
%ADD87C,2.2500*%
%ADD88C,0.6090*%
G36*
X339090Y707390D02*
X307810D01*
Y707450D01*
X282730D01*
Y707390D01*
X243840D01*
X232410Y695960D01*
Y688340D01*
X217170D01*
X203200Y702310D01*
Y718820D01*
X282730D01*
Y718770D01*
X307810D01*
Y718820D01*
X339090D01*
Y707390D01*
D02*
G37*
G36*
X549910Y726440D02*
X534670Y711200D01*
X520700D01*
Y722630D01*
X520360D01*
Y722650D01*
X504880D01*
Y722630D01*
X494030D01*
Y734060D01*
X496570Y736600D01*
X529590Y737870D01*
Y759460D01*
X528151Y792550D01*
X529304Y793750D01*
X549910Y793750D01*
Y726440D01*
D02*
G37*
G36*
X412750Y626110D02*
X399285Y612645D01*
X398939D01*
X396886Y611795D01*
X395516Y610425D01*
X336674D01*
X330200Y616898D01*
Y693420D01*
X334010Y697230D01*
X412750D01*
Y626110D01*
D02*
G37*
G36*
X995680Y605790D02*
X1009650D01*
Y586031D01*
X997659Y574040D01*
X930910D01*
X909320Y552450D01*
X892810Y553720D01*
Y594360D01*
X894080Y596900D01*
X895350Y598170D01*
X930910D01*
X943610Y610870D01*
Y632460D01*
X969010D01*
X995680Y605790D01*
D02*
G37*
G36*
X789940Y775970D02*
X806450Y759460D01*
X871220D01*
Y528320D01*
X836328Y482600D01*
X754380D01*
X754380Y533400D01*
X808990D01*
X816610Y525780D01*
X836930D01*
X852170Y541020D01*
Y740410D01*
X792480D01*
X783590Y749300D01*
Y792480D01*
X789940D01*
Y775970D01*
D02*
G37*
G36*
X124460Y561340D02*
X115570Y552450D01*
X107950D01*
Y519430D01*
X292100D01*
Y483870D01*
X288310D01*
Y483990D01*
X273030D01*
Y483870D01*
X269240D01*
Y494030D01*
X257810Y505460D01*
X93980D01*
Y548640D01*
X107950Y562610D01*
Y586740D01*
Y588010D01*
X124460D01*
Y561340D01*
D02*
G37*
G36*
X979170Y468630D02*
Y426720D01*
X969010Y416560D01*
X922020D01*
X914400Y424180D01*
Y434340D01*
X919480Y439420D01*
X963930D01*
X966470Y441960D01*
Y442980D01*
X966520Y443230D01*
Y458470D01*
X966323Y459461D01*
X965761Y460301D01*
X964921Y460863D01*
X963930Y461060D01*
X919430D01*
X916940Y463550D01*
Y477520D01*
X918760D01*
Y476870D01*
X961740D01*
Y477520D01*
X970280D01*
X979170Y468630D01*
D02*
G37*
G36*
X821690Y439420D02*
X820470Y438200D01*
X783590D01*
X783340Y438150D01*
X750570D01*
X749300Y439420D01*
X748030Y443230D01*
X751840Y453390D01*
X821690D01*
Y439420D01*
D02*
G37*
G36*
X732790Y495300D02*
Y481330D01*
X751840Y476250D01*
X755600Y480010D01*
X825500D01*
Y458470D01*
X751840D01*
X734060Y440690D01*
Y430530D01*
X778510D01*
X783590Y435610D01*
X842010D01*
Y468630D01*
X897890D01*
Y447040D01*
X868680Y417830D01*
X800100D01*
X783590Y401320D01*
X703580D01*
X661670Y443230D01*
Y497840D01*
X670560Y506730D01*
X732790D01*
Y495300D01*
D02*
G37*
G36*
X1092150Y402540D02*
X1088390Y398780D01*
X1000760D01*
Y523387D01*
X1013313Y535940D01*
X1092150D01*
Y402540D01*
D02*
G37*
G36*
X963930Y443230D02*
X914400D01*
X909320Y438150D01*
Y420370D01*
X918210Y411480D01*
X962660D01*
X981710Y392430D01*
Y238760D01*
X1014730Y205740D01*
Y148590D01*
X904240D01*
Y196850D01*
X897890D01*
X882789Y181749D01*
X881412Y180954D01*
X879496Y179038D01*
X878701Y177661D01*
X844550Y143510D01*
X267970D01*
Y198120D01*
X296921D01*
Y172461D01*
X840740Y172720D01*
X892810Y224790D01*
X943610D01*
X943610Y388620D01*
X927120D01*
Y388740D01*
X911840D01*
Y388620D01*
X869950D01*
Y401320D01*
X877570Y408940D01*
X894080D01*
Y439420D01*
X913130Y458470D01*
X963930D01*
Y443230D01*
D02*
G37*
G36*
X1049020Y676910D02*
Y640080D01*
X1103630Y585470D01*
Y20320D01*
X1088390Y5080D01*
X138430D01*
X127000Y16510D01*
Y68580D01*
X175260D01*
Y43180D01*
X280670D01*
Y55880D01*
Y68580D01*
X309880D01*
Y58420D01*
Y43180D01*
X430530D01*
Y50800D01*
Y71120D01*
X461010Y71120D01*
Y40640D01*
X584678Y40640D01*
X586334Y69850D01*
X623379D01*
X623761Y39370D01*
X727710D01*
X739140Y50800D01*
Y71120D01*
X754380D01*
X778510Y71120D01*
Y46990D01*
Y40640D01*
X880110D01*
X891540Y52070D01*
Y68580D01*
X920750D01*
Y55880D01*
Y40640D01*
X1031240Y40640D01*
X1061720Y71120D01*
X1094740Y104140D01*
Y542290D01*
X1089660Y547370D01*
X1021080D01*
X966470Y492760D01*
X922608D01*
X920049Y495319D01*
X919480Y495700D01*
Y514350D01*
X942340D01*
X1004730Y576740D01*
X1005580D01*
Y577590D01*
X1024890Y596900D01*
X1024890Y617220D01*
X998220Y643890D01*
X908050D01*
Y657860D01*
X970280D01*
X995680Y683260D01*
X1042670D01*
X1049020Y676910D01*
D02*
G37*
D16*
X472440Y376520D02*
D03*
Y451520D02*
D03*
X279400D02*
D03*
Y376520D02*
D03*
D17*
X295270Y725810D02*
D03*
Y713110D02*
D03*
Y700410D02*
D03*
Y687710D02*
D03*
Y675010D02*
D03*
Y662310D02*
D03*
Y649610D02*
D03*
Y636910D02*
D03*
Y624210D02*
D03*
Y611510D02*
D03*
Y598810D02*
D03*
Y586110D02*
D03*
Y573410D02*
D03*
Y560710D02*
D03*
X465270D02*
D03*
Y573410D02*
D03*
Y586110D02*
D03*
Y598810D02*
D03*
Y611510D02*
D03*
Y624210D02*
D03*
Y636910D02*
D03*
Y649610D02*
D03*
Y662310D02*
D03*
Y675010D02*
D03*
Y687710D02*
D03*
Y700410D02*
D03*
Y713110D02*
D03*
Y725810D02*
D03*
D18*
X323120Y550710D02*
D03*
X335820D02*
D03*
X348520D02*
D03*
X361220D02*
D03*
X373920D02*
D03*
X386620D02*
D03*
X399320D02*
D03*
X412020D02*
D03*
X424720D02*
D03*
X437420D02*
D03*
D19*
X351920Y669160D02*
D03*
X370270D02*
D03*
X388620D02*
D03*
Y650810D02*
D03*
X370270D02*
D03*
X351920D02*
D03*
Y632460D02*
D03*
X370270D02*
D03*
X388620D02*
D03*
D20*
X880110Y451940D02*
D03*
Y492940D02*
D03*
D21*
X919480Y381000D02*
D03*
Y395700D02*
D03*
Y631190D02*
D03*
Y645890D02*
D03*
X586740Y620760D02*
D03*
Y606060D02*
D03*
X629920Y620760D02*
D03*
Y606060D02*
D03*
X335280Y506460D02*
D03*
Y491760D02*
D03*
X472440Y491220D02*
D03*
Y476520D02*
D03*
X764540Y541750D02*
D03*
Y527050D02*
D03*
X280670Y476250D02*
D03*
Y490950D02*
D03*
D22*
X940250Y501360D02*
D03*
Y484360D02*
D03*
Y467360D02*
D03*
Y450360D02*
D03*
Y433360D02*
D03*
D23*
X1062990Y328930D02*
D03*
X963930D02*
D03*
D24*
X983040Y589280D02*
D03*
X1054040D02*
D03*
Y181610D02*
D03*
X983040D02*
D03*
D25*
X919480Y606170D02*
D03*
Y590170D02*
D03*
X586740Y672590D02*
D03*
Y656590D02*
D03*
X919480Y342520D02*
D03*
Y358520D02*
D03*
X763270Y568580D02*
D03*
Y584580D02*
D03*
X629920Y656590D02*
D03*
Y672590D02*
D03*
D26*
X878320Y744220D02*
D03*
X864120D02*
D03*
X878320Y726440D02*
D03*
X864120D02*
D03*
X116320Y543560D02*
D03*
X102120D02*
D03*
X116320Y527050D02*
D03*
X102120D02*
D03*
D27*
X729210Y786040D02*
D03*
D28*
X842410Y783790D02*
D03*
D29*
X762460Y679040D02*
D03*
X822160D02*
D03*
D30*
X727460Y688790D02*
D03*
Y725790D02*
D03*
D31*
X753810Y787290D02*
D03*
X764810D02*
D03*
X775810D02*
D03*
X786810D02*
D03*
X797810D02*
D03*
X808810D02*
D03*
X819810D02*
D03*
D32*
X830310D02*
D03*
D33*
X512620Y715010D02*
D03*
X527320D02*
D03*
X512620Y697230D02*
D03*
X527320D02*
D03*
X512620Y680720D02*
D03*
X527320D02*
D03*
X512620Y635000D02*
D03*
X527320D02*
D03*
X512620Y612140D02*
D03*
X527320D02*
D03*
X512620Y595630D02*
D03*
X527320D02*
D03*
X243840Y575310D02*
D03*
X229140D02*
D03*
X243840Y557530D02*
D03*
X229140D02*
D03*
X512620Y579120D02*
D03*
X527320D02*
D03*
X512620Y551180D02*
D03*
X527320D02*
D03*
D34*
X176200Y719500D02*
D03*
X156200D02*
D03*
X136200D02*
D03*
X116200D02*
D03*
X96200D02*
D03*
X76200D02*
D03*
X56200D02*
D03*
X36200D02*
D03*
Y571500D02*
D03*
X56200D02*
D03*
X76200D02*
D03*
X96200D02*
D03*
X116200D02*
D03*
X136200D02*
D03*
X156200D02*
D03*
X176200D02*
D03*
D35*
X241300Y711720D02*
D03*
Y725920D02*
D03*
X219710D02*
D03*
Y711720D02*
D03*
X393700Y406170D02*
D03*
Y420370D02*
D03*
X331470Y406170D02*
D03*
Y420370D02*
D03*
X816610Y474230D02*
D03*
Y488430D02*
D03*
X798830Y474230D02*
D03*
Y488430D02*
D03*
X797560Y428510D02*
D03*
Y442710D02*
D03*
D36*
X943610Y638810D02*
D03*
Y645310D02*
D03*
D37*
X765310Y466090D02*
D03*
Y443090D02*
D03*
Y489090D02*
D03*
D38*
X702810Y466090D02*
D03*
D73*
X1047750Y467360D02*
D03*
D74*
X484540Y376520D02*
X494030Y367030D01*
X472440Y376520D02*
X484540D01*
X842410Y783790D02*
Y797868D01*
X816584Y800100D02*
X840178D01*
X842410Y797868D01*
X51220Y68580D02*
X62230Y57570D01*
X29210Y68580D02*
X51220D01*
X36200Y719500D02*
Y724000D01*
X52174Y739974D01*
X57984D01*
X58420Y740410D01*
X939800Y430315D02*
X942845Y433360D01*
X939800Y421640D02*
Y430315D01*
X940250Y433360D02*
X951520D01*
X966760D01*
X942845D02*
X951520D01*
X424180Y709930D02*
X436880D01*
X450165Y723215D01*
X462675D01*
X465270Y725810D01*
X116320Y527050D02*
X132080D01*
X116320D02*
Y543560D01*
X219710Y725920D02*
Y735285D01*
X221942Y737517D02*
X228247D01*
X219710Y735285D02*
X221942Y737517D01*
X228247D02*
X228600Y737870D01*
X275590Y730250D02*
X280030Y725810D01*
X295270D01*
X172855Y722845D02*
X176200Y719500D01*
X172855Y722845D02*
Y734578D01*
X171450Y735983D02*
X172855Y734578D01*
X171450Y735983D02*
Y736600D01*
X1009755Y722880D02*
X1018540D01*
X943610Y638810D02*
X953770D01*
X975360Y617220D01*
X982150Y590170D02*
X983040Y589280D01*
X975360Y596960D02*
Y617220D01*
Y596960D02*
X982150Y590170D01*
X878320Y716800D02*
X885190Y709930D01*
X919480Y590170D02*
X982150D01*
X919480Y575310D02*
Y590170D01*
X906780Y562610D02*
X919480Y575310D01*
X902970Y562610D02*
X906780D01*
X842410Y783790D02*
X869750D01*
X875030Y778510D01*
X878320Y726440D02*
Y744220D01*
Y716800D02*
Y726440D01*
X811115Y794631D02*
X816584Y800100D01*
X808810Y787290D02*
X811115Y789595D01*
Y794631D01*
X711110Y786040D02*
X729210D01*
X701040Y775970D02*
X711110Y786040D01*
X707390Y679450D02*
X716730Y688790D01*
X822160Y657060D02*
Y679040D01*
X815340Y650240D02*
X822160Y657060D01*
X762460Y663400D02*
Y679040D01*
X762770Y584580D02*
X763270D01*
X760425Y586925D02*
Y587425D01*
Y586925D02*
X762770Y584580D01*
X716730Y688790D02*
X727460D01*
X751840Y652780D02*
X762460Y663400D01*
X751840Y596010D02*
X760425Y587425D01*
X751840Y596010D02*
Y652780D01*
X1012190Y502920D02*
X1047750Y467360D01*
X1012190Y502920D02*
Y528320D01*
X970280Y436880D02*
Y463550D01*
X966470Y467360D02*
X970280Y463550D01*
X940250Y467360D02*
X966470D01*
X966760Y433360D02*
X970280Y436880D01*
X1045210Y133350D02*
X1054040Y142180D01*
Y181610D01*
X983780Y91440D02*
X991400Y99060D01*
X983780Y57570D02*
Y91440D01*
X880110Y449690D02*
Y451940D01*
X871015Y442845D02*
X873265D01*
X798388Y474672D02*
X798830Y474230D01*
X816610D01*
X873265Y442845D02*
X880110Y449690D01*
X856680Y428510D02*
X871015Y442845D01*
X796510Y428510D02*
X797560D01*
X856680D01*
X787092Y474672D02*
X798388D01*
X778510Y466090D02*
X787092Y474672D01*
X765310Y466090D02*
X778510D01*
X702810Y441190D02*
Y466090D01*
X779480Y411480D02*
X796510Y428510D01*
X688340Y426720D02*
X702810Y441190D01*
X919480Y308650D02*
Y342520D01*
X911860Y301030D02*
X919480Y308650D01*
X887730Y138850D02*
Y172720D01*
X880110Y131230D02*
X887730Y138850D01*
X830188Y57570D02*
Y91440D01*
X768350Y411480D02*
X779480D01*
X830188Y91440D02*
X837808Y99060D01*
X676597Y91440D02*
X684217Y99060D01*
X676597Y57570D02*
Y91440D01*
X642620Y751840D02*
X648154Y746306D01*
X642620Y751840D02*
Y779780D01*
X648460Y672590D02*
X655320Y679450D01*
X370270Y686500D02*
X370840Y687070D01*
X388620Y669160D02*
Y679450D01*
X394970Y685800D01*
X370270Y669160D02*
Y686500D01*
X629920Y672590D02*
X648460D01*
X586740D02*
X629920D01*
X405700Y650810D02*
X406400Y651510D01*
X388620Y650810D02*
X405700D01*
X388620Y619760D02*
Y632460D01*
X360810Y641350D02*
X370270Y650810D01*
Y615380D02*
Y632460D01*
X369570Y614680D02*
X370270Y615380D01*
X219710Y725920D02*
X241300D01*
X360680Y641350D02*
X360810D01*
X351920Y669160D02*
Y684400D01*
X349250Y687070D02*
X351920Y684400D01*
Y617350D02*
Y632460D01*
X349250Y614680D02*
X351920Y617350D01*
X334580Y650810D02*
X351920D01*
X334295Y650525D02*
X334580Y650810D01*
X334010Y650240D02*
X334295Y650525D01*
X393700Y406170D02*
X394750D01*
X424400Y376520D01*
X330420Y406170D02*
X331470D01*
X424400Y376520D02*
X472440D01*
X298450Y534670D02*
X314490Y550710D01*
X323120D01*
X298450Y525780D02*
Y534670D01*
X300770Y376520D02*
X330420Y406170D01*
X279400Y376520D02*
X300770D01*
X278637Y375757D02*
X279400Y376520D01*
X369413Y91440D02*
X377033Y99060D01*
X523005Y57570D02*
Y91440D01*
X530625Y99060D01*
X369413Y57570D02*
Y91440D01*
X278637Y367537D02*
Y375757D01*
X271780Y360680D02*
X278637Y367537D01*
X248920Y360680D02*
X271780D01*
X234950Y261620D02*
X285490D01*
X218440Y278130D02*
X234950Y261620D01*
X56200Y545780D02*
X58420Y543560D01*
X56200Y545780D02*
Y571500D01*
X72390Y190500D02*
X91440Y171450D01*
X215822Y91440D02*
X223442Y99060D01*
X215822Y57570D02*
Y91440D01*
X50800Y190500D02*
X72390D01*
X50800Y215900D02*
Y241300D01*
Y190500D02*
Y215900D01*
X1059428Y589280D02*
X1067523Y581185D01*
X1013610Y645310D02*
X1018540Y650240D01*
X943610Y645310D02*
X1013610D01*
X942670D02*
X943610D01*
X942090Y645890D02*
X942670Y645310D01*
X919480Y645890D02*
X942090D01*
D75*
X214630Y579120D02*
X218440Y575310D01*
X229140D01*
X640080Y689610D02*
X676260Y725790D01*
X538730Y650490D02*
X577850Y689610D01*
X640080D01*
X516822Y708361D02*
Y710808D01*
Y708361D02*
X518573Y706610D01*
X512620Y715010D02*
X516822Y710808D01*
X518573Y706610D02*
X545320D01*
X605138Y726440D02*
X613410D01*
X540368Y661670D02*
X605138Y726440D01*
X516890Y661670D02*
X540368D01*
X545320Y706610D02*
X574040Y735330D01*
X739140D01*
X772360Y768550D01*
X543560Y680720D02*
X548640Y685800D01*
X527320Y680720D02*
X543560D01*
X568960Y720090D02*
X588010D01*
X546100Y697230D02*
X568960Y720090D01*
X527320Y697230D02*
X546100D01*
X521120Y557280D02*
Y557647D01*
X527220Y551180D02*
X527320D01*
X521120Y557280D02*
X527220Y551180D01*
X514887Y563880D02*
X521120Y557647D01*
X508000Y563880D02*
X514887D01*
X242570Y638810D02*
X248920Y632460D01*
X176530Y638810D02*
X242570D01*
X992762Y347089D02*
Y463928D01*
X940250Y484360D02*
X972330D01*
X992762Y463928D01*
X926250Y484360D02*
X940250D01*
X1017270Y322580D02*
X1056640D01*
X1062990Y328930D01*
X992762Y347089D02*
X1017270Y322580D01*
X917670Y492940D02*
X926250Y484360D01*
X880110Y492940D02*
X917670D01*
X512620Y612140D02*
X513080Y612600D01*
X511990Y611510D02*
X512620Y612140D01*
X707620Y186920D02*
X721360Y200660D01*
X697690Y185420D02*
X699190Y186920D01*
X707620D01*
X721360Y200660D02*
Y275590D01*
X629920Y367030D02*
X721360Y275590D01*
X629920Y367030D02*
Y535940D01*
X588010Y371300D02*
X697690Y261620D01*
X588010Y371300D02*
Y535940D01*
X245110Y292100D02*
X449580Y496570D01*
X50800Y292100D02*
X245110D01*
X449580Y496570D02*
Y570230D01*
X437420Y499103D02*
Y550710D01*
X255817Y317500D02*
X437420Y499103D01*
X50800Y317500D02*
X255817D01*
X436880Y618490D02*
Y695960D01*
X441330Y700410D01*
X566420Y303530D02*
Y336550D01*
Y303530D02*
X633730Y236220D01*
X697690D01*
Y210820D02*
Y236220D01*
X452760Y662310D02*
X465270D01*
X445770Y655320D02*
X452760Y662310D01*
X445770Y591820D02*
Y655320D01*
X449580Y570230D02*
X452760Y573410D01*
X465270D01*
X441330Y700410D02*
X465270D01*
X420980Y554450D02*
Y560917D01*
Y554450D02*
X424720Y550710D01*
X381187Y600710D02*
X420980Y560917D01*
X490025Y650490D02*
X538730D01*
X676260Y725790D02*
X727460D01*
X335280Y607060D02*
X400050D01*
X299010Y633170D02*
X309170D01*
X335280Y607060D01*
X295270Y636910D02*
X299010Y633170D01*
X792427Y796090D02*
X794360Y794157D01*
X701040Y789940D02*
X707190Y796090D01*
X792427D01*
X794360Y792030D02*
X797810Y788580D01*
Y787290D02*
Y788580D01*
X794360Y792030D02*
Y794157D01*
X772360Y768550D02*
Y783840D01*
X465660Y624600D02*
X550940D01*
X465270Y624210D02*
X465660Y624600D01*
X550940D02*
X560070Y633730D01*
X519634Y620540D02*
X560850D01*
X567690Y627380D01*
X517060Y617966D02*
X519634Y620540D01*
X513180Y612600D02*
X517060Y616480D01*
Y617966D01*
X513080Y612600D02*
X513180D01*
X772360Y783840D02*
X775810Y787290D01*
X514350Y646430D02*
X568960D01*
X576580Y638810D01*
X756920Y769620D02*
X764810Y777510D01*
Y787290D01*
X819810Y771550D02*
Y787290D01*
X817880Y769620D02*
X819810Y771550D01*
X512620Y644700D02*
X514350Y646430D01*
X512620Y635000D02*
Y644700D01*
X491490Y697230D02*
X512620D01*
X481970Y687710D02*
X491490Y697230D01*
X465270Y687710D02*
X481970D01*
X512520Y680720D02*
X512620D01*
X465270Y675010D02*
X506810D01*
X512520Y680720D01*
X116200Y742310D02*
X116840Y742950D01*
X116200Y719500D02*
Y742310D01*
X194310Y671830D02*
Y676890D01*
X208280Y557530D02*
X229140D01*
X201930Y563880D02*
X208280Y557530D01*
X156200Y715000D02*
X194310Y676890D01*
X156200Y715000D02*
Y719500D01*
X205740Y646430D02*
Y650293D01*
X314690Y491760D02*
X335280D01*
X302260Y504190D02*
X314690Y491760D01*
X140690Y710510D02*
X145523D01*
X136200Y715000D02*
Y719500D01*
Y715000D02*
X140690Y710510D01*
X145523D02*
X205740Y650293D01*
X629920Y620760D02*
Y656590D01*
X586740Y620760D02*
Y656590D01*
X510720Y713110D02*
X512620Y715010D01*
X465270Y713110D02*
X510720D01*
X510710Y636910D02*
X512620Y635000D01*
X465270Y636910D02*
X510710D01*
X465270Y611510D02*
X511990D01*
X487040Y598810D02*
X490220Y595630D01*
X512620D01*
X465270Y598810D02*
X487040D01*
X500380Y577850D02*
X511350D01*
X492120Y586110D02*
X500380Y577850D01*
X511350D02*
X512620Y579120D01*
X465270Y586110D02*
X492120D01*
X317500Y600710D02*
X381187D01*
X100690Y712500D02*
X102840D01*
X176530Y638810D01*
X96200Y716990D02*
Y719500D01*
Y716990D02*
X100690Y712500D01*
X335280Y550170D02*
X335820Y550710D01*
X335280Y506460D02*
Y550170D01*
X292090Y557530D02*
X295270Y560710D01*
X243840Y557530D02*
X292090D01*
X293370Y575310D02*
X295270Y573410D01*
X243840Y575310D02*
X293370D01*
X136200Y553410D02*
X153670Y535940D01*
X289667D01*
X136200Y553410D02*
Y571500D01*
X289667Y535940D02*
X313690Y559963D01*
X295270Y586110D02*
X306700D01*
X313690Y579120D01*
Y559963D02*
Y579120D01*
X183520Y598810D02*
X295270D01*
X176530Y571830D02*
Y591820D01*
X183520Y598810D01*
X176200Y571500D02*
X176530Y571830D01*
X173360Y611510D02*
X295270D01*
X156200Y594350D02*
X173360Y611510D01*
X156200Y571500D02*
Y594350D01*
X136520Y624210D02*
X295270D01*
X76200Y684530D02*
X136520Y624210D01*
X76200Y684530D02*
Y719500D01*
X763905Y542385D02*
Y567945D01*
X919480Y358520D02*
Y381000D01*
Y606170D02*
Y631190D01*
X469359Y559660D02*
X476660D01*
X469750D02*
X472440Y556970D01*
X469359Y559660D02*
X469750D01*
X485140Y551180D02*
X512620D01*
X476660Y559660D02*
X485140Y551180D01*
X472440Y491220D02*
Y556970D01*
X467210Y559660D02*
X469359D01*
X465270Y560710D02*
X466160D01*
X467210Y559660D01*
X586740Y606060D02*
X588010Y604790D01*
Y561340D02*
Y604790D01*
X565420Y606060D02*
X586740D01*
X527320Y595630D02*
X554990D01*
X565420Y606060D01*
X629920Y561340D02*
Y606060D01*
X527320Y579120D02*
X571500D01*
X316860Y700410D02*
X322580Y694690D01*
X295270Y700410D02*
X316860D01*
X288890Y461010D02*
X303530D01*
X299270Y451520D02*
X330420Y420370D01*
X331470D01*
X284140Y456260D02*
X288890Y461010D01*
X283640Y456260D02*
X284140D01*
X280670Y453290D02*
Y476250D01*
Y453290D02*
X283640Y456260D01*
X279400Y451520D02*
X299270D01*
X279400Y452020D02*
X280670Y453290D01*
X279400Y451520D02*
Y452020D01*
X425900Y451520D02*
X472440D01*
Y476520D01*
X394750Y420370D02*
X425900Y451520D01*
X393700Y420370D02*
X394750D01*
D76*
X885190Y401320D02*
X890810Y395700D01*
X919480D01*
X797560Y442710D02*
X814820D01*
X815340Y443230D01*
X527320Y635000D02*
X539750D01*
X527320Y612140D02*
X539750D01*
X102430Y517326D02*
X105405Y514350D01*
X274320D01*
X102430Y517326D02*
Y526740D01*
X280670Y490950D02*
Y507727D01*
X274320Y514077D02*
Y514350D01*
Y514077D02*
X280670Y507727D01*
X102120Y527050D02*
X102430Y526740D01*
X102120Y527050D02*
Y543560D01*
X504190Y728980D02*
X516134D01*
X524660Y717570D02*
X527220Y715010D01*
X516134Y728980D02*
X524660Y720454D01*
X527220Y715010D02*
X527320D01*
X524660Y717570D02*
Y720454D01*
X332100Y713110D02*
X332740Y712470D01*
X295270Y713110D02*
X332100D01*
X527320Y715010D02*
X527420D01*
X818770Y489540D02*
Y490590D01*
X864120Y535940D01*
X816610Y488430D02*
X817660D01*
X818770Y489540D01*
X798830Y744220D02*
X864120D01*
X786810Y756240D02*
Y787290D01*
Y756240D02*
X798830Y744220D01*
X763905Y542385D02*
X764540Y541750D01*
X763270Y568580D02*
X763905Y567945D01*
X1084580Y589280D02*
X1098550Y575310D01*
Y97340D02*
Y575310D01*
X1059428Y589280D02*
X1084580D01*
X1054040D02*
X1059428D01*
X1020224D02*
X1054040D01*
X941898Y510954D02*
X1020224Y589280D01*
X941898Y502914D02*
Y510954D01*
X940344Y501360D02*
X941898Y502914D01*
X1018540Y650240D02*
Y663580D01*
X1054040Y589280D02*
Y614740D01*
X1018540Y650240D02*
X1054040Y614740D01*
X1058780Y57570D02*
X1098550Y97340D01*
X1058780Y34690D02*
Y57570D01*
X905188Y38422D02*
Y57570D01*
X751597Y38343D02*
Y57570D01*
X444413Y33107D02*
Y57570D01*
X598005Y33185D02*
Y57570D01*
X290822Y36838D02*
Y57570D01*
X137230Y40570D02*
Y57570D01*
X290822Y36838D02*
X299720Y27940D01*
X598005Y33185D02*
X603250Y27940D01*
X449580D02*
X603250D01*
X905188Y38422D02*
X915670Y27940D01*
X762000D02*
X915670D01*
X444413Y33107D02*
X449580Y27940D01*
X299720D02*
X449580D01*
X751597Y38343D02*
X762000Y27940D01*
X603250D02*
X762000D01*
X149860D02*
X299720D01*
X137230Y40570D02*
X149860Y27940D01*
X1052214D02*
X1058872Y34598D01*
X1058780Y34690D02*
X1058872Y34598D01*
X915670Y27940D02*
X1052214D01*
X910482Y397618D02*
X917562D01*
X919480Y395700D01*
X900430Y407670D02*
Y439420D01*
Y407670D02*
X910482Y397618D01*
X919480Y395700D02*
X953040D01*
X963930Y384810D01*
Y328930D02*
Y384810D01*
Y212090D02*
Y328930D01*
X911370Y450360D02*
X940250D01*
X976630Y188020D02*
X983040Y181610D01*
X973040D02*
X983040D01*
X976630Y188020D02*
Y199390D01*
X963930Y212090D02*
X976630Y199390D01*
X964150Y172720D02*
X973040Y181610D01*
X913130Y172720D02*
X964150D01*
X900430Y439420D02*
X911370Y450360D01*
X765500Y442900D02*
X797370D01*
X797560Y442710D01*
X900430Y212090D02*
X963930D01*
X848360Y160020D02*
X900430Y212090D01*
X285490Y167900D02*
Y185420D01*
X293370Y160020D02*
X848360D01*
X285490Y167900D02*
X293370Y160020D01*
X864120Y726440D02*
Y744220D01*
Y535940D02*
Y726440D01*
X541020Y728610D02*
Y779780D01*
X527420Y715010D02*
X541020Y728610D01*
X801370Y527050D02*
X816610Y511810D01*
Y488430D02*
Y511810D01*
X764540Y527050D02*
X801370D01*
X798830Y488430D02*
X816610D01*
X798500Y488760D02*
X798830Y488430D01*
X765640Y488760D02*
X798500D01*
X741680Y527050D02*
X764540D01*
X294630Y712470D02*
X295270Y713110D01*
X241300Y711720D02*
X242050Y712470D01*
X294630D01*
X219710Y711720D02*
X241300D01*
X219710Y701040D02*
X224790Y695960D01*
X219710Y701040D02*
Y711720D01*
X116200Y567000D02*
Y571500D01*
X103230Y554030D02*
X116200Y567000D01*
X102120Y543560D02*
X103230Y544670D01*
Y554030D01*
D77*
X878487Y111760D02*
X1016878D01*
X878487Y59271D02*
Y111760D01*
X726597D02*
X878487D01*
X1016878D02*
X1033780Y94858D01*
X573005Y111760D02*
X726597D01*
X419413D02*
X573005D01*
X1033780Y57570D02*
Y94858D01*
X878487Y59271D02*
X880188Y57570D01*
X726597D02*
Y111760D01*
X573005Y57570D02*
Y111760D01*
X148590Y236220D02*
X285490D01*
X130810Y111760D02*
X267310D01*
X419413D01*
X265822Y110272D02*
X267310Y111760D01*
X125730Y116840D02*
Y213360D01*
X148590Y236220D01*
X125730Y116840D02*
X130810Y111760D01*
X112230Y103340D02*
X125730Y116840D01*
X419413Y57570D02*
Y111760D01*
X265822Y57570D02*
Y110272D01*
X112230Y57570D02*
Y103340D01*
X63500Y420370D02*
Y495300D01*
X36200Y522600D02*
X63500Y495300D01*
X36200Y522600D02*
Y571500D01*
D78*
X1018540Y663580D02*
D03*
Y722880D02*
D03*
D79*
X971240Y699580D02*
D03*
D80*
X642620Y779780D02*
D03*
X617220D02*
D03*
X591820D02*
D03*
X566420D02*
D03*
X541020D02*
D03*
X588010Y561340D02*
D03*
Y535940D02*
D03*
X629920D02*
D03*
Y561340D02*
D03*
X913130Y172720D02*
D03*
X887730D02*
D03*
D81*
X983780Y57570D02*
D03*
X1008780D02*
D03*
X1033780D02*
D03*
X1058780D02*
D03*
X830188D02*
D03*
X855188D02*
D03*
X880188D02*
D03*
X905188D02*
D03*
X676597D02*
D03*
X701597D02*
D03*
X726597D02*
D03*
X751597D02*
D03*
X369413D02*
D03*
X394413D02*
D03*
X419413D02*
D03*
X444413D02*
D03*
X523005D02*
D03*
X548005D02*
D03*
X573005D02*
D03*
X598005D02*
D03*
X215822D02*
D03*
X240822D02*
D03*
X265822D02*
D03*
X290822D02*
D03*
X62230D02*
D03*
X87230D02*
D03*
X112230D02*
D03*
X137230D02*
D03*
D82*
X933450Y783590D02*
D03*
X1064260Y111760D02*
D03*
X17780Y21590D02*
D03*
X19050Y786130D02*
D03*
D83*
X697690Y261620D02*
D03*
Y185420D02*
D03*
Y236220D02*
D03*
Y210820D02*
D03*
X50800Y266700D02*
D03*
Y292100D02*
D03*
Y215900D02*
D03*
Y241300D02*
D03*
Y190500D02*
D03*
X285490Y210820D02*
D03*
Y236220D02*
D03*
Y185420D02*
D03*
D84*
X50800Y317500D02*
D03*
D85*
X285490Y261620D02*
D03*
D86*
X88900Y394970D02*
D03*
Y445770D02*
D03*
X38100D02*
D03*
Y394970D02*
D03*
D87*
X63500Y420370D02*
D03*
D88*
X494030Y367030D02*
D03*
X214630Y579120D02*
D03*
X29210Y68580D02*
D03*
X58420Y740410D02*
D03*
X939800Y421640D02*
D03*
X885190Y401320D02*
D03*
X815340Y443230D02*
D03*
X613410Y726440D02*
D03*
X548640Y685800D02*
D03*
X588010Y720090D02*
D03*
X516890Y661670D02*
D03*
X508000Y563880D02*
D03*
X539750Y635000D02*
D03*
Y612140D02*
D03*
X424180Y709930D02*
D03*
X132080Y527050D02*
D03*
X274320Y514350D02*
D03*
X504190Y728980D02*
D03*
X332100Y713110D02*
D03*
X248920Y632460D02*
D03*
X671830Y478790D02*
D03*
Y466090D02*
D03*
Y459740D02*
D03*
Y453390D02*
D03*
Y472440D02*
D03*
X678180Y478790D02*
D03*
Y466090D02*
D03*
Y459740D02*
D03*
Y453390D02*
D03*
Y472440D02*
D03*
X684530D02*
D03*
Y453390D02*
D03*
Y459740D02*
D03*
Y466090D02*
D03*
Y478790D02*
D03*
X436880Y618490D02*
D03*
X566420Y336550D02*
D03*
X445770Y591820D02*
D03*
X400050Y607060D02*
D03*
X490025Y650490D02*
D03*
X701040Y789940D02*
D03*
X560070Y633730D02*
D03*
X567690Y627380D02*
D03*
X576580Y638810D02*
D03*
X756920Y769620D02*
D03*
X817880D02*
D03*
X116840Y742950D02*
D03*
X201930Y563880D02*
D03*
X194310Y671830D02*
D03*
X302260Y504190D02*
D03*
X205740Y646430D02*
D03*
X317500Y600710D02*
D03*
X228600Y737870D02*
D03*
X275590Y730250D02*
D03*
X171450Y736600D02*
D03*
X885190Y709930D02*
D03*
X1045210Y528320D02*
D03*
X1075690D02*
D03*
X1068070D02*
D03*
X1083310D02*
D03*
X1052830D02*
D03*
X1060450D02*
D03*
X902970Y562610D02*
D03*
X1036320Y528320D02*
D03*
X1028700D02*
D03*
X1012190D02*
D03*
X1021080D02*
D03*
X875030Y778510D02*
D03*
X701040Y775970D02*
D03*
X815340Y650240D02*
D03*
X707390Y679450D02*
D03*
X655320D02*
D03*
X751840Y652780D02*
D03*
X1036320Y406400D02*
D03*
X1021080D02*
D03*
X1028700D02*
D03*
X1068070D02*
D03*
X1060450D02*
D03*
X1075690D02*
D03*
X1045210D02*
D03*
X1052830D02*
D03*
X1012190D02*
D03*
X1083310D02*
D03*
X1045210Y133350D02*
D03*
X991400Y99060D02*
D03*
X688340Y426720D02*
D03*
X911860Y301030D02*
D03*
X880110Y131230D02*
D03*
X837808Y99060D02*
D03*
X768350Y411480D02*
D03*
X684217Y99060D02*
D03*
X648154Y746306D02*
D03*
X394970Y685800D02*
D03*
X370840Y687070D02*
D03*
X406400Y651510D02*
D03*
X388620Y619760D02*
D03*
X379730Y660400D02*
D03*
Y641350D02*
D03*
X369570Y614680D02*
D03*
X346710Y688340D02*
D03*
X360680Y660400D02*
D03*
Y641350D02*
D03*
X334295Y650525D02*
D03*
X349250Y614680D02*
D03*
X298450Y525780D02*
D03*
X530625Y99060D02*
D03*
X377033D02*
D03*
X248920Y360680D02*
D03*
X223442Y99060D02*
D03*
X58420Y543560D02*
D03*
X218440Y278130D02*
D03*
X91440Y171450D02*
D03*
X571500Y579120D02*
D03*
X322580Y694690D02*
D03*
X303530Y461010D02*
D03*
X741680Y527050D02*
D03*
X224790Y695960D02*
D03*
M02*
