G04*
G04 #@! TF.GenerationSoftware,Altium Limited,Altium Designer,22.5.1 (42)*
G04*
G04 Layer_Color=8388736*
%FSLAX44Y44*%
%MOMM*%
G71*
G04*
G04 #@! TF.SameCoordinates,439176CC-913A-41A4-8FE2-C616B98F55A6*
G04*
G04*
G04 #@! TF.FilePolarity,Negative*
G04*
G01*
G75*
%ADD39R,1.1016X1.2016*%
%ADD40R,2.1016X1.0016*%
%ADD41R,1.0016X2.1016*%
%ADD42R,1.4316X1.4316*%
%ADD43R,1.8516X2.3016*%
%ADD44R,1.1216X1.1416*%
%ADD45R,3.8916X1.0916*%
%ADD46R,7.9816X10.9416*%
%ADD47R,2.9972X5.5118*%
%ADD48R,4.1016X2.1016*%
%ADD49R,1.0516X0.9516*%
%ADD50R,0.8316X1.0416*%
%ADD51R,1.6516X1.4516*%
%ADD52R,1.2716X1.9016*%
%ADD53R,2.0016X1.4516*%
%ADD54R,1.3016X1.1016*%
%ADD55R,0.9516X1.2016*%
%ADD56R,0.8516X1.2016*%
%ADD57R,1.1416X1.1216*%
%ADD58R,1.1516X2.0516*%
%ADD59R,1.0416X0.8316*%
%ADD60R,0.7016X0.4516*%
G04:AMPARAMS|DCode=61|XSize=1.0016mm|YSize=1.8516mm|CornerRadius=0.1003mm|HoleSize=0mm|Usage=FLASHONLY|Rotation=270.000|XOffset=0mm|YOffset=0mm|HoleType=Round|Shape=RoundedRectangle|*
%AMROUNDEDRECTD61*
21,1,1.0016,1.6510,0,0,270.0*
21,1,0.8010,1.8516,0,0,270.0*
1,1,0.2006,-0.8255,-0.4005*
1,1,0.2006,-0.8255,0.4005*
1,1,0.2006,0.8255,0.4005*
1,1,0.2006,0.8255,-0.4005*
%
%ADD61ROUNDEDRECTD61*%
G04:AMPARAMS|DCode=62|XSize=3.3016mm|YSize=1.8516mm|CornerRadius=0.1033mm|HoleSize=0mm|Usage=FLASHONLY|Rotation=270.000|XOffset=0mm|YOffset=0mm|HoleType=Round|Shape=RoundedRectangle|*
%AMROUNDEDRECTD62*
21,1,3.3016,1.6450,0,0,270.0*
21,1,3.0950,1.8516,0,0,270.0*
1,1,0.2066,-0.8225,-1.5475*
1,1,0.2066,-0.8225,1.5475*
1,1,0.2066,0.8225,1.5475*
1,1,0.2066,0.8225,-1.5475*
%
%ADD62ROUNDEDRECTD62*%
%ADD63O,3.9016X2.0016*%
%ADD64O,2.0016X3.9016*%
%ADD65C,1.6516*%
%ADD66C,1.6016*%
%ADD67C,1.6256*%
%ADD68C,1.6316*%
%ADD69R,1.6316X1.6316*%
%ADD70R,1.6316X1.6316*%
%ADD71C,2.6516*%
%ADD72C,2.3516*%
D39*
X472440Y376520D02*
D03*
Y451520D02*
D03*
X279400D02*
D03*
Y376520D02*
D03*
D40*
X295270Y725810D02*
D03*
Y713110D02*
D03*
Y700410D02*
D03*
Y687710D02*
D03*
Y675010D02*
D03*
Y662310D02*
D03*
Y649610D02*
D03*
Y636910D02*
D03*
Y624210D02*
D03*
Y611510D02*
D03*
Y598810D02*
D03*
Y586110D02*
D03*
Y573410D02*
D03*
Y560710D02*
D03*
X465270D02*
D03*
Y573410D02*
D03*
Y586110D02*
D03*
Y598810D02*
D03*
Y611510D02*
D03*
Y624210D02*
D03*
Y636910D02*
D03*
Y649610D02*
D03*
Y662310D02*
D03*
Y675010D02*
D03*
Y687710D02*
D03*
Y700410D02*
D03*
Y713110D02*
D03*
Y725810D02*
D03*
D41*
X323120Y550710D02*
D03*
X335820D02*
D03*
X348520D02*
D03*
X361220D02*
D03*
X373920D02*
D03*
X386620D02*
D03*
X399320D02*
D03*
X412020D02*
D03*
X424720D02*
D03*
X437420D02*
D03*
D42*
X351920Y669160D02*
D03*
X370270D02*
D03*
X388620D02*
D03*
Y650810D02*
D03*
X370270D02*
D03*
X351920D02*
D03*
Y632460D02*
D03*
X370270D02*
D03*
X388620D02*
D03*
D43*
X880110Y451940D02*
D03*
Y492940D02*
D03*
D44*
X919480Y381000D02*
D03*
Y395700D02*
D03*
Y631190D02*
D03*
Y645890D02*
D03*
X586740Y620760D02*
D03*
Y606060D02*
D03*
X629920Y620760D02*
D03*
Y606060D02*
D03*
X335280Y506460D02*
D03*
Y491760D02*
D03*
X472440Y491220D02*
D03*
Y476520D02*
D03*
X764540Y541750D02*
D03*
Y527050D02*
D03*
X280670Y476250D02*
D03*
Y490950D02*
D03*
D45*
X940250Y501360D02*
D03*
Y484360D02*
D03*
Y467360D02*
D03*
Y450360D02*
D03*
Y433360D02*
D03*
D46*
X1047750Y467360D02*
D03*
D47*
X1062990Y328930D02*
D03*
X963930D02*
D03*
D48*
X983040Y589280D02*
D03*
X1054040D02*
D03*
Y181610D02*
D03*
X983040D02*
D03*
D49*
X919480Y606170D02*
D03*
Y590170D02*
D03*
X586740Y672590D02*
D03*
Y656590D02*
D03*
X919480Y342520D02*
D03*
Y358520D02*
D03*
X763270Y568580D02*
D03*
Y584580D02*
D03*
X629920Y656590D02*
D03*
Y672590D02*
D03*
D50*
X878320Y744220D02*
D03*
X864120D02*
D03*
X878320Y726440D02*
D03*
X864120D02*
D03*
X116320Y543560D02*
D03*
X102120D02*
D03*
X116320Y527050D02*
D03*
X102120D02*
D03*
D51*
X729210Y786040D02*
D03*
D52*
X842410Y783790D02*
D03*
D53*
X762460Y679040D02*
D03*
X822160D02*
D03*
D54*
X727460Y688790D02*
D03*
Y725790D02*
D03*
D55*
X753810Y787290D02*
D03*
X764810D02*
D03*
X775810D02*
D03*
X786810D02*
D03*
X797810D02*
D03*
X808810D02*
D03*
X819810D02*
D03*
D56*
X830310D02*
D03*
D57*
X512620Y715010D02*
D03*
X527320D02*
D03*
X512620Y697230D02*
D03*
X527320D02*
D03*
X512620Y680720D02*
D03*
X527320D02*
D03*
X512620Y635000D02*
D03*
X527320D02*
D03*
X512620Y612140D02*
D03*
X527320D02*
D03*
X512620Y595630D02*
D03*
X527320D02*
D03*
X243840Y575310D02*
D03*
X229140D02*
D03*
X243840Y557530D02*
D03*
X229140D02*
D03*
X512620Y579120D02*
D03*
X527320D02*
D03*
X512620Y551180D02*
D03*
X527320D02*
D03*
D58*
X176200Y719500D02*
D03*
X156200D02*
D03*
X136200D02*
D03*
X116200D02*
D03*
X96200D02*
D03*
X76200D02*
D03*
X56200D02*
D03*
X36200D02*
D03*
Y571500D02*
D03*
X56200D02*
D03*
X76200D02*
D03*
X96200D02*
D03*
X116200D02*
D03*
X136200D02*
D03*
X156200D02*
D03*
X176200D02*
D03*
D59*
X241300Y711720D02*
D03*
Y725920D02*
D03*
X219710D02*
D03*
Y711720D02*
D03*
X393700Y406170D02*
D03*
Y420370D02*
D03*
X331470Y406170D02*
D03*
Y420370D02*
D03*
X816610Y474230D02*
D03*
Y488430D02*
D03*
X798830Y474230D02*
D03*
Y488430D02*
D03*
X797560Y428510D02*
D03*
Y442710D02*
D03*
D60*
X943610Y638810D02*
D03*
Y645310D02*
D03*
D61*
X765310Y466090D02*
D03*
Y443090D02*
D03*
Y489090D02*
D03*
D62*
X702810Y466090D02*
D03*
D63*
X1018540Y663580D02*
D03*
Y722880D02*
D03*
D64*
X971240Y699580D02*
D03*
D65*
X642620Y779780D02*
D03*
X617220D02*
D03*
X591820D02*
D03*
X566420D02*
D03*
X541020D02*
D03*
X588010Y561340D02*
D03*
Y535940D02*
D03*
X629920D02*
D03*
Y561340D02*
D03*
X913130Y172720D02*
D03*
X887730D02*
D03*
D66*
X983780Y57570D02*
D03*
X1008780D02*
D03*
X1033780D02*
D03*
X1058780D02*
D03*
X830188D02*
D03*
X855188D02*
D03*
X880188D02*
D03*
X905188D02*
D03*
X676597D02*
D03*
X701597D02*
D03*
X726597D02*
D03*
X751597D02*
D03*
X369413D02*
D03*
X394413D02*
D03*
X419413D02*
D03*
X444413D02*
D03*
X523005D02*
D03*
X548005D02*
D03*
X573005D02*
D03*
X598005D02*
D03*
X215822D02*
D03*
X240822D02*
D03*
X265822D02*
D03*
X290822D02*
D03*
X62230D02*
D03*
X87230D02*
D03*
X112230D02*
D03*
X137230D02*
D03*
D67*
X933450Y783590D02*
D03*
X1064260Y111760D02*
D03*
X17780Y21590D02*
D03*
X19050Y786130D02*
D03*
D68*
X697690Y261620D02*
D03*
Y185420D02*
D03*
Y236220D02*
D03*
Y210820D02*
D03*
X50800Y266700D02*
D03*
Y292100D02*
D03*
Y215900D02*
D03*
Y241300D02*
D03*
Y190500D02*
D03*
X285490Y210820D02*
D03*
Y236220D02*
D03*
Y185420D02*
D03*
D69*
X50800Y317500D02*
D03*
D70*
X285490Y261620D02*
D03*
D71*
X88900Y394970D02*
D03*
Y445770D02*
D03*
X38100D02*
D03*
Y394970D02*
D03*
D72*
X63500Y420370D02*
D03*
M02*
