G04*
G04 #@! TF.GenerationSoftware,Altium Limited,Altium Designer,22.5.1 (42)*
G04*
G04 Layer_Color=8421504*
%FSLAX44Y44*%
%MOMM*%
G71*
G04*
G04 #@! TF.SameCoordinates,439176CC-913A-41A4-8FE2-C616B98F55A6*
G04*
G04*
G04 #@! TF.FilePolarity,Positive*
G04*
G01*
G75*
%ADD16R,1.0000X1.1000*%
%ADD17R,2.0000X0.9000*%
%ADD18R,0.9000X2.0000*%
%ADD19R,1.3300X1.3300*%
%ADD20R,1.7500X2.2000*%
%ADD21R,1.0200X1.0400*%
%ADD22R,3.7900X0.9900*%
%ADD23R,2.8956X5.4102*%
%ADD24R,4.0000X2.0000*%
%ADD25R,0.9500X0.8500*%
%ADD26R,0.7300X0.9400*%
%ADD27R,1.5500X1.3500*%
%ADD28R,1.1700X1.8000*%
%ADD29R,1.9000X1.3500*%
%ADD30R,1.2000X1.0000*%
%ADD31R,0.8500X1.1000*%
%ADD32R,0.7500X1.1000*%
%ADD33R,1.0400X1.0200*%
%ADD34R,1.0500X1.9500*%
%ADD35R,0.9400X0.7300*%
%ADD36R,0.6000X0.3500*%
G04:AMPARAMS|DCode=37|XSize=0.9mm|YSize=1.75mm|CornerRadius=0.0495mm|HoleSize=0mm|Usage=FLASHONLY|Rotation=270.000|XOffset=0mm|YOffset=0mm|HoleType=Round|Shape=RoundedRectangle|*
%AMROUNDEDRECTD37*
21,1,0.9000,1.6510,0,0,270.0*
21,1,0.8010,1.7500,0,0,270.0*
1,1,0.0990,-0.8255,-0.4005*
1,1,0.0990,-0.8255,0.4005*
1,1,0.0990,0.8255,0.4005*
1,1,0.0990,0.8255,-0.4005*
%
%ADD37ROUNDEDRECTD37*%
G04:AMPARAMS|DCode=38|XSize=3.2mm|YSize=1.75mm|CornerRadius=0.0525mm|HoleSize=0mm|Usage=FLASHONLY|Rotation=270.000|XOffset=0mm|YOffset=0mm|HoleType=Round|Shape=RoundedRectangle|*
%AMROUNDEDRECTD38*
21,1,3.2000,1.6450,0,0,270.0*
21,1,3.0950,1.7500,0,0,270.0*
1,1,0.1050,-0.8225,-1.5475*
1,1,0.1050,-0.8225,1.5475*
1,1,0.1050,0.8225,1.5475*
1,1,0.1050,0.8225,-1.5475*
%
%ADD38ROUNDEDRECTD38*%
G36*
X1081650Y452060D02*
X1066450D01*
Y464560D01*
X1081650D01*
Y452060D01*
D02*
G37*
G36*
X1055350D02*
X1040150D01*
Y464560D01*
X1055350D01*
Y452060D01*
D02*
G37*
G36*
X1029050D02*
X1013850D01*
Y464560D01*
X1029050D01*
Y452060D01*
D02*
G37*
G36*
X1081650Y433960D02*
X1066450D01*
Y446460D01*
X1081650D01*
Y433960D01*
D02*
G37*
G36*
X1055350D02*
X1040150D01*
Y446460D01*
X1055350D01*
Y433960D01*
D02*
G37*
G36*
X1029050D02*
X1013850D01*
Y446460D01*
X1029050D01*
Y433960D01*
D02*
G37*
G36*
X1081650Y415860D02*
X1066450D01*
Y428360D01*
X1081650D01*
Y415860D01*
D02*
G37*
G36*
X1055350D02*
X1040150D01*
Y428360D01*
X1055350D01*
Y415860D01*
D02*
G37*
G36*
X1029050D02*
X1013850D01*
Y428360D01*
X1029050D01*
Y415860D01*
D02*
G37*
G36*
X1081650Y506360D02*
X1066450D01*
Y518860D01*
X1081650D01*
Y506360D01*
D02*
G37*
G36*
X1055350D02*
X1040150D01*
Y518860D01*
X1055350D01*
Y506360D01*
D02*
G37*
G36*
X1029050D02*
X1013850D01*
Y518860D01*
X1029050D01*
Y506360D01*
D02*
G37*
G36*
X1081650Y488260D02*
X1066450D01*
Y500760D01*
X1081650D01*
Y488260D01*
D02*
G37*
G36*
X1055350D02*
X1040150D01*
Y500760D01*
X1055350D01*
Y488260D01*
D02*
G37*
G36*
X1029050D02*
X1013850D01*
Y500760D01*
X1029050D01*
Y488260D01*
D02*
G37*
G36*
X1081650Y470160D02*
X1066450D01*
Y482660D01*
X1081650D01*
Y470160D01*
D02*
G37*
G36*
X1055350D02*
X1040150D01*
Y482660D01*
X1055350D01*
Y470160D01*
D02*
G37*
G36*
X1029050D02*
X1013850D01*
Y482660D01*
X1029050D01*
Y470160D01*
D02*
G37*
D16*
X472440Y376520D02*
D03*
Y451520D02*
D03*
X279400D02*
D03*
Y376520D02*
D03*
D17*
X295270Y725810D02*
D03*
Y713110D02*
D03*
Y700410D02*
D03*
Y687710D02*
D03*
Y675010D02*
D03*
Y662310D02*
D03*
Y649610D02*
D03*
Y636910D02*
D03*
Y624210D02*
D03*
Y611510D02*
D03*
Y598810D02*
D03*
Y586110D02*
D03*
Y573410D02*
D03*
Y560710D02*
D03*
X465270D02*
D03*
Y573410D02*
D03*
Y586110D02*
D03*
Y598810D02*
D03*
Y611510D02*
D03*
Y624210D02*
D03*
Y636910D02*
D03*
Y649610D02*
D03*
Y662310D02*
D03*
Y675010D02*
D03*
Y687710D02*
D03*
Y700410D02*
D03*
Y713110D02*
D03*
Y725810D02*
D03*
D18*
X323120Y550710D02*
D03*
X335820D02*
D03*
X348520D02*
D03*
X361220D02*
D03*
X373920D02*
D03*
X386620D02*
D03*
X399320D02*
D03*
X412020D02*
D03*
X424720D02*
D03*
X437420D02*
D03*
D19*
X351920Y669160D02*
D03*
X370270D02*
D03*
X388620D02*
D03*
Y650810D02*
D03*
X370270D02*
D03*
X351920D02*
D03*
Y632460D02*
D03*
X370270D02*
D03*
X388620D02*
D03*
D20*
X880110Y451940D02*
D03*
Y492940D02*
D03*
D21*
X919480Y381000D02*
D03*
Y395700D02*
D03*
Y631190D02*
D03*
Y645890D02*
D03*
X586740Y620760D02*
D03*
Y606060D02*
D03*
X629920Y620760D02*
D03*
Y606060D02*
D03*
X335280Y506460D02*
D03*
Y491760D02*
D03*
X472440Y491220D02*
D03*
Y476520D02*
D03*
X764540Y541750D02*
D03*
Y527050D02*
D03*
X280670Y476250D02*
D03*
Y490950D02*
D03*
D22*
X940250Y501360D02*
D03*
Y484360D02*
D03*
Y467360D02*
D03*
Y450360D02*
D03*
Y433360D02*
D03*
D23*
X1062990Y328930D02*
D03*
X963930D02*
D03*
D24*
X983040Y589280D02*
D03*
X1054040D02*
D03*
Y181610D02*
D03*
X983040D02*
D03*
D25*
X919480Y606170D02*
D03*
Y590170D02*
D03*
X586740Y672590D02*
D03*
Y656590D02*
D03*
X919480Y342520D02*
D03*
Y358520D02*
D03*
X763270Y568580D02*
D03*
Y584580D02*
D03*
X629920Y656590D02*
D03*
Y672590D02*
D03*
D26*
X878320Y744220D02*
D03*
X864120D02*
D03*
X878320Y726440D02*
D03*
X864120D02*
D03*
X116320Y543560D02*
D03*
X102120D02*
D03*
X116320Y527050D02*
D03*
X102120D02*
D03*
D27*
X729210Y786040D02*
D03*
D28*
X842410Y783790D02*
D03*
D29*
X762460Y679040D02*
D03*
X822160D02*
D03*
D30*
X727460Y688790D02*
D03*
Y725790D02*
D03*
D31*
X753810Y787290D02*
D03*
X764810D02*
D03*
X775810D02*
D03*
X786810D02*
D03*
X797810D02*
D03*
X808810D02*
D03*
X819810D02*
D03*
D32*
X830310D02*
D03*
D33*
X512620Y715010D02*
D03*
X527320D02*
D03*
X512620Y697230D02*
D03*
X527320D02*
D03*
X512620Y680720D02*
D03*
X527320D02*
D03*
X512620Y635000D02*
D03*
X527320D02*
D03*
X512620Y612140D02*
D03*
X527320D02*
D03*
X512620Y595630D02*
D03*
X527320D02*
D03*
X243840Y575310D02*
D03*
X229140D02*
D03*
X243840Y557530D02*
D03*
X229140D02*
D03*
X512620Y579120D02*
D03*
X527320D02*
D03*
X512620Y551180D02*
D03*
X527320D02*
D03*
D34*
X176200Y719500D02*
D03*
X156200D02*
D03*
X136200D02*
D03*
X116200D02*
D03*
X96200D02*
D03*
X76200D02*
D03*
X56200D02*
D03*
X36200D02*
D03*
Y571500D02*
D03*
X56200D02*
D03*
X76200D02*
D03*
X96200D02*
D03*
X116200D02*
D03*
X136200D02*
D03*
X156200D02*
D03*
X176200D02*
D03*
D35*
X241300Y711720D02*
D03*
Y725920D02*
D03*
X219710D02*
D03*
Y711720D02*
D03*
X393700Y406170D02*
D03*
Y420370D02*
D03*
X331470Y406170D02*
D03*
Y420370D02*
D03*
X816610Y474230D02*
D03*
Y488430D02*
D03*
X798830Y474230D02*
D03*
Y488430D02*
D03*
X797560Y428510D02*
D03*
Y442710D02*
D03*
D36*
X943610Y638810D02*
D03*
Y645310D02*
D03*
D37*
X765310Y466090D02*
D03*
Y443090D02*
D03*
Y489090D02*
D03*
D38*
X702810Y466090D02*
D03*
M02*
