M48
;Layer_Color=9474304
;FILE_FORMAT=4:4
METRIC,LZ
;TYPE=PLATED
T1F00S00C0.3040
T3F00S00C1.0000
T4F00S00C1.0200
T5F00S00C1.5000
T6F00S00C1.7000
;TYPE=NON_PLATED
T7F00S00C2.5000
%
T01
X009914Y0009906
X0104521Y0013335
X0088011Y0013123
X00837808Y0009906
X00684217
X0091186Y0030103
X00530625Y0009906
X00377033
X00223442
X0021844Y0027813
X0009144Y0017145
X0002921Y0006858
X0005842Y0054356
X0013208Y0052705
X0020193Y0056388
X0021463Y0057912
X0020574Y0064643
X0019431Y0067183
X0022479Y0069596
X0024892Y0063246
X003175Y0060071
X0034925Y0061468
X0036957
X0038862Y0061976
X0040005Y0060706
X0043688Y0061849
X0044577Y0059182
X00508Y0056388
X0053975Y0061214
Y00635
X0051689Y0066167
X00490025Y0065049
X004064Y0065151
X0037973Y006604
Y0064135
X0036068
Y006604
X00334295Y00650525
X0034671Y0068834
X0037084Y0068707
X0039497Y006858
X0042418Y0070993
X003321Y0071311
X0032258Y0069469
X0029845Y0052578
X0030226Y0050419
X0027432Y0051435
X0030353Y0046101
X0024892Y0036068
X0049403Y0036703
X0054864Y006858
X0056007Y0063373
X0056769Y0062738
X0057658Y0063881
X005715Y0057912
X0058801Y0072009
X0065532Y0067945
X0070739
X0075184Y0065278
X0081534Y0065024
X0088519Y0070993
X0090297Y0056261
X009398Y0042164
X0088519Y0040132
X0081534Y0044323
X0076835Y0041148
X0068834Y0042672
X0068453Y0045339
X0067818
X0067183
Y0045974
Y0046609
Y0047244
Y0047879
X0067818
Y0047244
Y0046609
Y0045974
X0068453
Y0046609
Y0047244
Y0047879
X0074168Y0052705
X0056642Y0033655
X0101219Y004064
X0102108
X010287
X0103632
X0104521
X0105283
X0106045
X0106807
X0107569
X0108331
Y0052832
X0107569
X0106807
X0106045
X0105283
X0104521
X0103632
X010287
X0102108
X0101219
X0087503Y0077851
X0081788Y0076962
X0075692
X0070104Y0077597
Y0078994
X00648154Y00746306
X0061341Y0072644
X0050419Y0072898
X0027559Y0073025
X002286Y0073787
X0017145Y007366
X0011684Y0074295
X0005842Y0074041
T03
X0098378Y0005757
X0100878
X0103378
X0105878
X00905188
X00880188
X00855188
X00830188
X00751597
X00726597
X00701597
X00676597
X00598005
X00573005
X00548005
X00523005
X00444413
X00419413
X00394413
X00369413
X00290822
X00265822
X00240822
X00215822
X0013723
X0011223
X0008723
X0006223
T04
X0069769Y0018542
Y0021082
Y0023622
Y0026162
X0088773Y0017272
X0091313
X0028549Y0018542
Y0021082
Y0023622
Y0026162
X000508Y002667
Y002921
Y003175
Y002413
Y002159
Y001905
X0058801Y0053594
Y0056134
X0062992
Y0053594
X0064262Y0077978
X0061722
X0059182
X0056642
X0054102
T05
X000635Y0042037
T06
X000381Y0039497
X000889
Y0044577
X000381
T07
X0106426Y0011176
X0001778Y0002159
X0093345Y0078359
X0001905Y0078613
M30
